<?xml version="1.0" encoding="UTF-8"?>
<svg width="530px" height="163px" viewBox="0 0 530 163" version="1.1" xmlns="http://www.w3.org/2000/svg" xmlns:xlink="http://www.w3.org/1999/xlink">
    <!-- Generator: Sketch 44.1 (41455) - http://www.bohemiancoding.com/sketch -->
    <title>Group 4</title>
    <desc>Created with Sketch.</desc>
    <defs>
        <path d="M88.4413988,150.929861 C85.7482859,147.500911 78.7910777,138.079311 72.1304324,124.828184 L72.2586759,124.828184 L69.9983847,120.445858 C66.1911567,112.225993 62.6564461,104.943481 60.3320332,94.7127136 L59.6266941,91.4039375 C59.4583745,90.5226654 59.2740246,89.6574165 59.1457811,88.7761444 C57.0938856,77.1513646 55.6431313,69.2119043 54.6251988,58.7568128 L54.4648944,57.41087 C53.1664293,43.6870603 52.5733032,35.5312878 52.3007859,28.1606486 L52.2446793,26.7986827 C52.1805576,23.6581495 52.1324663,21.4709924 52.1164359,20.5015931 C52.5252119,20.1490843 52.9179576,19.7164598 53.1744445,19.235766 C53.5431445,18.5708061 54.9458074,17.7696497 54.9458074,17.7696497 L54.9458074,15.4543076 L51.6996446,15.4543076 L51.6996446,11.2242016 C51.6996446,9.74206223 50.2969816,8.51629289 48.4775274,8.2679344 L48.4775274,0 L47.1630318,0 L47.1630318,8.2679344 C45.3275472,8.50828133 43.9328994,9.74206223 43.9328994,11.2242016 L43.9328994,15.4543076 L40.6707062,15.4543076 L40.6707062,17.7696497 C40.6707062,17.7696497 42.10543,18.5708061 42.4580995,19.235766 C42.7226017,19.7164598 43.1233625,20.1410727 43.5241234,20.5015931 C43.4840473,21.4709924 43.4680168,23.6581495 43.3718342,26.7986827 L43.3077125,28.1606486 C43.0512256,35.5312878 42.4661147,43.6870603 41.1436039,57.41087 L41.0153605,58.7568128 C39.9894127,69.2119043 38.5466737,77.1353414 36.5027934,88.7681328 C36.3585195,89.6413934 36.1741695,90.5146539 36.0138651,91.395926 L35.2924956,94.6966905 C32.9520523,104.943481 29.4333721,112.217982 25.6181288,120.437847 L23.3898985,124.820172 L23.4940964,124.820172 C16.8494816,138.0713 9.87624287,147.492899 7.17511478,150.921849 L0.0175260963,150.921849 L0.0175260963,157.619517 L95.6230331,157.619517 L95.6230331,150.921849 L88.4413988,150.929861 L88.4413988,150.929861 Z M43.2596212,89.4330927 C44.8306037,77.6000122 45.8645667,69.420205 46.4737232,58.7568128 L49.1427904,58.7568128 C49.7840078,69.420205 50.7778946,77.6000122 52.3729228,89.4330927 C52.453075,90.0820294 52.5572728,90.7389777 52.6614706,91.395926 L42.9630582,91.395926 C43.067256,90.7389777 43.1634386,90.0820294 43.2596212,89.4330927 Z M41.5924561,99.4635712 L54.0400879,99.4635712 C55.7633596,108.043957 58.0076203,113.652052 60.4282158,120.445858 L35.2043282,120.445858 C37.6249237,113.652052 39.8852149,108.043957 41.5924561,99.4635712 Z M20.2158727,150.929861 C21.6505965,148.846854 24.2314963,144.768968 27.2051418,138.952572 C31.6696176,132.823725 39.3562106,128.721804 47.8202796,128.721804 C56.2843487,128.721804 64.3717025,133.785113 68.4354175,138.952572 C71.3850173,144.776979 73.9819475,148.838842 75.4166714,150.929861 L20.2158727,150.929861 Z" id="path-1"></path>
        <path d="M391.16857,106.568133 L421.39239,106.568133 L421.39239,153.13166 C416.689532,154.747093 411.905662,155.969565 407.040636,156.799111 C402.175611,157.628658 396.540374,158.043425 390.134757,158.043425 C376.674853,158.043425 366.194934,153.73203 358.694687,145.109112 C351.194439,136.486193 347.444371,124.403373 347.444371,108.860289 C347.444371,98.9057302 349.299135,90.1847065 353.008717,82.6969569 C356.718299,75.2092073 362.059611,69.4897876 369.032814,65.5385261 C376.006018,61.5872647 384.175084,59.6116636 393.540258,59.6116636 C403.027058,59.6116636 411.865055,61.4890304 420.054514,65.2438203 L416.040888,75.0673493 C408.013596,71.3998802 400.290484,69.5661731 392.87132,69.5661731 C382.046638,69.5661731 373.593783,73.0371186 367.512501,79.9791139 C361.43122,86.9211092 358.390624,96.5480714 358.390624,108.860289 C358.390624,121.783752 361.319731,131.585353 367.178033,138.265386 C373.036334,144.94542 381.641219,148.285386 392.992945,148.285386 C399.155311,148.285386 405.17569,147.521342 411.054262,145.993229 L411.054262,116.522642 L391.16857,116.522642 L391.16857,106.568133 Z" id="path-2"></path>
    </defs>
    <g id="Page-1" stroke="none" stroke-width="1" fill="none" fill-rule="evenodd">
        <g id="03.04-Tutorial---Contextual" transform="translate(-94.000000, -252.000000)">
            <g id="Group-4" transform="translate(96.000000, 254.000000)">
                <g id="Group-Copy-3" transform="translate(432.154459, 34.024082)" fill-rule="nonzero" fill="#50E3C2">
                    <g id="mobile-phone-with-wifi" transform="translate(61.273630, 0.000000)">
                        <path d="M34.2847751,34.158578 C34.2847751,15.315433 18.9090962,1.20792265e-13 -3.41060513e-13,1.20792265e-13 L-3.41060513e-13,6.5788852 C15.2627689,6.5788852 27.6828637,18.9556612 27.6828637,34.1651966 L34.2847751,34.158578 Z M-3.41060513e-13,11.7347721 L-3.41060513e-13,18.3136573 C8.76712575,18.3004201 15.9136616,25.408793 15.9136616,34.1651966 L22.5089312,34.1651966 C22.5089312,21.7950392 12.413453,11.7413907 -3.41060513e-13,11.7347721 Z" id="Shape"></path>
                    </g>
                    <g id="route(1)-copy-2" transform="translate(0.000000, 24.462853)">
                        <path d="M38.8282952,0 C17.4361555,0 0.0325578873,17.3119824 0.0325578873,38.5906194 C0.0325578873,52.8727351 6.36928743,67.8285542 18.358227,81.8419881 C27.2670296,92.2550062 36.0974521,98.4850648 36.4688532,98.7453503 C37.1762839,99.2407323 38.0022895,99.4882234 38.8282952,99.4882234 C39.6538989,99.4882234 40.4799046,99.2407323 41.1881391,98.7453503 C41.5595402,98.4850648 50.3899627,92.255406 59.2987653,81.8419881 C71.2873029,67.8285542 77.6240325,52.8727351 77.6240325,38.5906194 C77.6244344,17.3119824 60.2208369,0 38.8282952,0 Z M38.8248765,87.8860919 C31.7117576,82.2253066 10.0120133,63.0031883 10.0120133,39.2089117 C10.0120133,23.4032974 22.9390373,10.5449967 38.8282835,10.5449967 C54.7175297,10.5449967 67.6441752,23.4032974 67.6441752,39.2089117 C67.6441752,62.9474578 45.9311812,82.2170224 38.8248765,87.8860919 Z" id="Shape" stroke="#50E3C2" stroke-width="3"></path>
                        <path d="M38.8150681,28.1324358 C31.9041442,28.1324358 26.2818522,33.7250021 26.2818522,40.5993871 C26.2818522,47.4737721 31.9041442,53.0663384 38.8150681,53.0663384 C45.7257315,53.0663384 51.3482841,47.4737721 51.3482841,40.5993871 C51.3485447,33.7250021 45.7259921,28.1324358 38.8150681,28.1324358 Z" id="Shape"></path>
                    </g>
                </g>
                <g id="eiffel-tower-in-paris-france-copy-3" transform="translate(50.111965, 0.282216)" fill-rule="nonzero">
                    <g id="Shape">
                        <use fill="#50E3C2" fill-rule="evenodd" xlink:href="#path-1"></use>
                        <path stroke="#50E3C2" stroke-width="1.5" d="M88.8064683,150.179453 L96.3730331,150.171012 L96.3730331,158.369517 L-0.732473904,158.369517 L-0.732473904,150.171849 L6.81039088,150.171849 C11.6303791,144.010733 17.174985,135.562032 22.2741855,125.570172 L22.1671731,125.570172 L22.7213553,124.480246 L24.9378366,120.12209 C25.0933091,119.787127 26.0349628,117.762293 26.3041532,117.181553 C26.8217508,116.064909 27.2381355,115.158805 27.6327334,114.287853 C30.9951167,106.866436 33.0115579,101.314788 34.5597894,94.5365603 L35.2759735,91.2617027 C35.3271972,90.9801005 35.3730975,90.7387265 35.4645881,90.2651808 C35.6273067,89.4229665 35.6896491,89.0887947 35.7641085,88.638346 C37.7800337,77.1646617 38.1298219,75.1148066 38.8068545,70.5371804 C39.4014669,66.5168224 39.872567,62.7229303 40.2687419,58.6856739 L40.3970623,57.3389287 C41.6880735,43.9419931 42.2958605,35.6724173 42.5585423,28.1253775 L42.6221857,26.7757238 C42.6547792,25.7114905 42.6799687,24.7054585 42.7033388,23.5973151 C42.7110681,23.2308134 42.7415377,21.680773 42.7491335,21.346958 C42.7537919,21.1422392 42.7582477,20.9675381 42.7627489,20.816313 C42.356468,20.4204285 42.0354545,20.0233739 41.7955192,19.5871735 C41.7776088,19.5534035 41.7403563,19.5024089 41.6851592,19.4408495 C41.5633649,19.3050166 41.3804622,19.1462362 41.1553697,18.9786846 C40.9700347,18.8407272 40.7685281,18.7057214 40.5667245,18.580524 C40.4460728,18.5056726 40.3538414,18.4517199 40.3050492,18.4244741 L39.9207062,18.2098552 L39.9207062,14.7043076 L43.1828994,14.7043076 L43.1828994,11.2242016 C43.1828994,9.53048306 44.5432221,8.12596457 46.4130318,7.64942228 L46.4130318,-0.75 L49.2275274,-0.75 L49.2275274,7.65247417 C51.0904165,8.13572748 52.4496446,9.53599729 52.4496446,11.2242016 L52.4496446,14.7043076 L55.6958074,14.7043076 L55.6958074,18.20499 L55.3177838,18.4209051 C55.2690387,18.4487467 55.176983,18.5037783 55.0565826,18.5800311 C54.8551959,18.7075746 54.6540978,18.8449354 54.4690918,18.9851039 C54.2509444,19.1503818 54.0722305,19.3071052 53.9500551,19.4425366 C53.8920204,19.506868 53.8515805,19.5611904 53.8361424,19.5888324 C53.6014981,20.02859 53.2709653,20.444792 52.8726184,20.8273251 C52.9006812,22.2761767 53.0027884,27.1889672 52.9940438,26.7678125 L53.0502737,28.1329375 C53.3262199,35.5963136 53.9325363,43.8218982 55.2096309,57.3221705 L55.371669,58.6841347 C55.7650109,62.724113 56.2353728,66.5207436 56.8309306,70.5433382 C57.5099941,75.129959 57.8787209,77.2830367 59.8879639,88.6681413 C59.9439495,89.0528671 60.0131092,89.4516661 60.107966,89.9497228 C60.1451791,90.1451143 60.1663631,90.2536968 60.2488562,90.6739969 C60.3009423,90.9393739 60.3311744,91.0946279 60.3602128,91.2475717 L61.0633946,94.5465495 C62.6001848,101.310642 64.6101594,106.842365 67.9869656,114.29667 C68.379729,115.163696 68.7928802,116.063244 69.3148301,117.190394 C69.5463679,117.6904 70.4566549,119.650752 70.6649466,120.102063 L73.4893894,125.578184 L73.3516038,125.578184 C78.4615306,135.569427 83.9995201,144.01697 88.8064683,150.179453 Z M43.8376554,90.645926 L51.7850339,90.645926 C51.7166603,90.1980942 51.6733316,89.8872285 51.6296449,89.5332821 C49.8078743,76.0180613 49.0114193,68.7713775 48.4371809,59.5068128 L47.1814321,59.5068128 C46.6512372,68.4866556 45.9220217,75.0779247 44.0030977,89.5317981 L44.0015165,89.5430532 C43.9240556,90.0656762 43.8744352,90.4002627 43.8376554,90.645926 Z M42.2062223,100.213571 C41.1595435,105.327239 39.9312327,109.464088 37.9335084,115.078096 C37.67572,115.802533 36.8065849,118.206853 36.2704255,119.695858 L59.3622466,119.695858 C58.835599,118.232138 57.973164,115.842337 57.7016504,115.077587 C55.7160644,109.484954 54.4845841,105.334984 53.4274066,100.213571 L42.2062223,100.213571 Z M21.6240848,150.179861 L74.0090397,150.179861 C72.0991238,147.280538 69.9714292,143.639873 67.8002768,139.358413 C63.3530696,133.743875 55.3100649,129.471804 47.8202796,129.471804 C39.8227236,129.471804 32.2940682,133.27405 27.8458136,139.346992 C25.6419761,143.653363 23.4723475,147.369787 21.6240848,150.179861 Z"></path>
                    </g>
                </g>
                <g id="G-Copy-3" stroke-linecap="round">
                    <use fill="#50E3C2" fill-rule="evenodd" xlink:href="#path-2"></use>
                    <use fill="black" fill-opacity="1" xlink:href="#path-2"></use>
                </g>
                <path d="M62.6011875,88.7552118 C62.6011875,98.651008 59.2104051,106.262188 52.4287385,111.588979 C45.647072,116.91577 35.9447343,119.579126 23.3214343,119.579126 L11.7725154,119.579126 L11.7725154,158.025439 L0.357886231,158.025439 L0.357886231,60.2715082 L25.8057947,60.2715082 C50.3361792,60.2715082 62.6011875,69.7659811 62.6011875,88.7552118 Z M11.7725154,109.817105 L22.0456816,109.817105 C32.162227,109.817105 39.4809454,108.190118 44.0020564,104.936095 C48.5231675,101.682072 50.7836891,96.4667981 50.7836891,89.290117 C50.7836891,82.8266465 48.6574559,78.0125475 44.4049257,74.8476757 C40.1523956,71.682804 33.5275006,70.1003918 24.530042,70.1003918 L11.7725154,70.1003918 L11.7725154,109.817105 Z" id="P-Copy" stroke="#B6B6B6" stroke-width="3" fill="#B6B6B6"></path>
                <path d="M170.745113,117.372642 L170.745113,158.025439 L159.330484,158.025439 L159.330484,60.2715082 L186.255579,60.2715082 C198.296954,60.2715082 207.193562,62.5671202 212.945668,67.158413 C218.697775,71.7497059 221.573785,78.6588294 221.573785,87.8859908 C221.573785,100.812932 214.993653,109.54963 201.833191,114.096347 L228.489707,158.025439 L214.993587,158.025439 L191.2243,117.372642 L170.745113,117.372642 Z M170.745113,107.610621 L186.389869,107.610621 C194.447295,107.610621 200.355985,106.017065 204.116117,102.829906 C207.876249,99.6427461 209.756287,94.8620784 209.756287,88.4877591 C209.756287,82.0242886 207.842677,77.3662021 204.015399,74.51336 C200.188122,71.6605178 194.044428,70.2341181 185.584131,70.2341181 L170.745113,70.2341181 L170.745113,107.610621 Z M244.335898,158.025439 L244.335898,60.2715082 L255.750527,60.2715082 L255.750527,158.025439 L244.335898,158.025439 Z M338.070147,132.015672 C338.070147,140.618775 334.936751,147.327311 328.669864,152.141482 C322.402978,156.955653 313.898045,159.362702 303.154811,159.362702 C291.516307,159.362702 282.563746,157.86944 276.29686,154.882871 L276.29686,143.917314 C280.325573,145.611189 284.712327,146.948439 289.457256,147.929103 C294.202184,148.909767 298.902279,149.400092 303.55768,149.400092 C311.167471,149.400092 316.89711,147.962549 320.746769,145.087419 C324.596427,142.212289 326.521228,138.211684 326.521228,133.085483 C326.521228,129.697733 325.838595,126.92294 324.473309,124.76102 C323.108023,122.599101 320.82512,120.60437 317.624532,118.776768 C314.423943,116.949166 309.555988,114.876429 303.020521,112.558495 C293.888772,109.304471 287.364593,105.448735 283.447789,100.991169 C279.530985,96.533603 277.572613,90.7165668 277.572613,83.5398858 C277.572613,76.0065994 280.415051,70.0112632 286.100012,65.5536973 C291.784973,61.0961315 299.305124,58.8673819 308.660691,58.8673819 C318.419128,58.8673819 327.394071,60.6503816 335.585786,64.2164343 L332.027108,74.112181 C323.924919,70.724431 316.046665,69.0305813 308.392111,69.0305813 C302.349042,69.0305813 297.626566,70.3232561 294.224542,72.9086443 C290.822518,75.4940325 289.121531,79.0823192 289.121531,83.6736121 C289.121531,87.0613621 289.748211,89.8361553 291.001588,91.9980747 C292.254965,94.1599942 294.370008,96.1435812 297.346779,97.9488954 C300.32355,99.7542096 304.878165,101.74894 311.010761,103.933148 C321.306361,107.588352 328.390074,111.510951 332.262115,115.701063 C336.134156,119.891175 338.070147,125.329324 338.070147,132.015672 Z" id="RIS-Copy" stroke="#B6B6B6" stroke-width="3" fill="#B6B6B6"></path>
            </g>
        </g>
    </g>
</svg>