<?xml version="1.0" encoding="UTF-8"?>
<svg width="31px" height="31px" viewBox="0 0 31 31" version="1.1" xmlns="http://www.w3.org/2000/svg" xmlns:xlink="http://www.w3.org/1999/xlink">
    <!-- Generator: Sketch 44.1 (41455) - http://www.bohemiancoding.com/sketch -->
    <title>Group</title>
    <desc>Created with Sketch.</desc>
    <defs></defs>
    <g id="Page-1" stroke="none" stroke-width="1" fill="none" fill-rule="evenodd">
        <g id="06.01-Profile---Info-Copy-2" transform="translate(-46.000000, -527.000000)" fill="#50E3C2">
            <g id="ic_schedule" transform="translate(46.000000, 527.000000)">
                <g id="Group">
                    <path d="M15.4845833,0.0833333333 C6.97458333,0.0833333333 0.0833333333,6.99 0.0833333333,15.5 C0.0833333333,24.01 6.97458333,30.9166667 15.4845833,30.9166667 C24.01,30.9166667 30.9166667,24.01 30.9166667,15.5 C30.9166667,6.99 24.01,0.0833333333 15.4845833,0.0833333333 L15.4845833,0.0833333333 Z M15.5,27.8333333 C8.68583333,27.8333333 3.16666667,22.3141667 3.16666667,15.5 C3.16666667,8.68583333 8.68583333,3.16666667 15.5,3.16666667 C22.3141667,3.16666667 27.8333333,8.68583333 27.8333333,15.5 C27.8333333,22.3141667 22.3141667,27.8333333 15.5,27.8333333 L15.5,27.8333333 Z" id="Shape"></path>
                    <polygon id="Shape" points="16.2708333 7.79166667 13.9583333 7.79166667 13.9583333 17.0416667 22.0520833 21.8979167 23.2083333 20.0016667 16.2708333 15.8854167"></polygon>
                </g>
            </g>
        </g>
    </g>
</svg>