<?xml version="1.0" encoding="UTF-8"?>
<svg width="720px" height="411px" viewBox="0 0 720 411" version="1.1" xmlns="http://www.w3.org/2000/svg" xmlns:xlink="http://www.w3.org/1999/xlink">
    <!-- Generator: Sketch 44.1 (41455) - http://www.bohemiancoding.com/sketch -->
    <title>Fill 580</title>
    <desc>Created with Sketch.</desc>
    <defs></defs>
    <g id="Page-1" stroke="none" stroke-width="1" fill="none" fill-rule="evenodd">
        <g id="03.04-Tutorial---Contextual" transform="translate(0.000000, -780.000000)" fill="#B7B7B7">
            <g id="Group-581-Copy-2" transform="translate(-140.000000, 780.000000)">
                <path d="M894.632343,339.887162 L893.228,339.900095 L893.239752,347.279822 L893.239752,347.590201 L892.772029,347.596079 L892.772029,350.915016 L893.310263,352.933654 L865.977869,352.933654 L866.457343,351.137219 L866.433839,347.806525 L865.966117,347.806525 L865.966117,347.490268 L865.930861,340.075271 L864.514766,340.087027 L864.514766,339.823676 L864.316161,305.778409 L864.866146,305.632625 L864.854394,303.689231 L864.971912,303.543447 L865.100007,303.402365 L865.241029,303.278919 L865.392628,303.168405 L865.555978,303.062594 L865.720504,302.974419 L865.895606,302.899175 L866.071883,302.840391 L866.246985,302.799243 L866.832226,302.752216 L866.832226,302.178485 L867.158927,302.167904 L867.158927,301.921012 L866.527854,301.92689 L866.270489,301.932768 L864.901401,301.932768 L864.901401,301.921012 L864.304409,301.921012 L864.66754,297.783803 L866.105964,293.979311 L868.493934,290.695644 L871.676328,288.162059 L875.42046,286.57607 L879.117584,286.084637 L879.44546,286.08934 L879.772161,286.08934 L883.47046,286.599584 L887.201664,288.197329 L890.385234,290.730914 L892.772029,294.014581 L894.210453,297.807316 L894.608839,301.921012 L891.788401,301.921012 L891.788401,302.162026 L892.116277,302.178485 L892.116277,302.746337 L892.736774,302.805121 L892.864869,302.834513 L893.041146,302.899175 L893.216248,302.969716 L893.380774,303.056716 L893.544124,303.156649 L893.683971,303.268338 L893.824993,303.396487 L893.953088,303.530514 L894.070606,303.677474 L894.070606,305.61499 L894.608839,305.772531 L894.632343,339.624986 L894.632343,339.887162 Z M862.783723,301.968039 L862.783723,301.950404 L865.357372,301.950404 L865.005993,301.956282 L864.188066,301.968039 L862.783723,301.968039 Z M862.02338,301.968039 L861.391131,301.968039 L861.239533,301.973917 L861.098511,301.973917 L861.098511,301.968039 L861.811847,301.956282 L862.02338,301.956282 L862.02338,301.968039 Z M767.331876,344.054939 L767.004,344.054939 L767.004,344.605156 C766.371752,345.751441 765.97454,347.226916 765.97454,348.859932 C765.97454,349.416028 766.033299,349.942731 766.114387,350.451799 L766.114387,350.82684 L766.184898,350.82684 C766.255409,351.141922 766.32592,351.446422 766.418759,351.739166 L766.349423,351.774436 L766.582109,352.208261 C766.676124,352.464559 766.793642,352.699695 766.909985,352.933654 L685.287686,352.933654 C685.463964,352.202383 685.568555,351.422909 685.568555,350.603462 C685.568555,348.842297 685.124336,347.256308 684.399248,346.073577 L684.691869,345.512779 L684.960985,345.230616 L684.878723,345.155373 L685.171343,344.58752 L685.334693,344.658061 L686.072708,342.983896 L686.025701,342.960383 L686.131467,342.755815 L686.271314,342.82518 L689.512467,336.347197 L689.359693,336.270778 L689.617058,335.849886 C690.178796,329.189673 707.928752,315.751681 728.065504,315.751681 C743.228883,315.751681 755.478985,323.359489 760.814314,329.966796 L760.849569,329.926823 L760.861321,329.932702 L760.814314,329.966796 C762.68638,332.285232 763.715839,334.474343 763.715839,336.170846 L764.851066,338.506917 L764.558445,338.652701 L765.272956,340.116419 L765.389299,340.057635 L765.471562,340.198717 L765.354044,340.268082 L766.255409,341.754138 L766.395255,341.667138 L767.471723,343.872709 L767.331876,344.054939 Z M719.008372,247.234377 L736.150759,247.234377 L736.559723,249.258894 L736.664314,249.891408 L744.550964,290.683887 L709.613964,290.683887 L719.008372,247.234377 Z M723.115635,217.730753 L724.355453,204.129341 L725.502431,197.012965 L725.502431,197.000033 L725.514182,196.977695 L725.608197,196.386329 L725.537686,196.374573 L725.537686,196.356937 L725.608197,196.368694 L725.608197,196.351059 L725.537686,196.339302 L725.549438,196.27464 L725.619949,196.280518 L726.427299,186.336639 L726.544818,184.98461 L726.544818,184.979907 L727.340416,175.036028 L727.409752,174.26831 L727.468511,174.274189 L727.52727,173.279566 L727.480263,173.273687 L727.480263,173.169052 L727.539022,173.169052 L727.539022,172.630592 L727.573102,172.630592 L727.643613,171.599523 L727.584854,171.59482 L727.596606,171.483131 L727.643613,171.483131 L727.643613,171.343225 L728.20535,164.43612 L728.228854,164.108106 L729.831803,184.031136 L729.867058,185.003421 L729.914066,185.003421 L729.914066,185.072786 L729.87881,185.078664 L730.299526,190.282212 L730.580394,196.30991 L730.814255,196.292275 L730.826007,196.427478 L730.61565,196.462748 L730.896518,198.247427 L730.978781,198.23567 L730.978781,198.241548 L730.896518,198.247427 L731.061044,199.300834 L731.048117,199.300834 L731.55227,205.569546 L731.505263,205.562492 L731.340737,206.236155 L731.611029,206.300817 L731.621606,206.358425 L731.633358,206.358425 L731.633358,206.381939 L731.656861,206.377236 L731.656861,206.40075 L731.867219,206.381939 L731.925978,207.179048 L731.727372,207.196683 L731.727372,207.266048 L731.93773,207.248413 L731.93773,207.255467 L731.692117,207.277805 L732.23035,214.079099 L732.242102,214.183734 L732.909606,222.59453 L732.943686,223.06245 L728.368701,223.06245 L728.368701,223.09772 L727.818715,223.091842 L727.222898,223.091842 L727.222898,223.06245 L722.636161,223.06245 L723.115635,217.730753 Z M737.624438,51.6263462 L737.624438,51.6322246 L737.612686,51.6263462 L737.624438,51.6263462 Z M66.7844453,322.862178 L66.7844453,322.92684 L59.1199051,322.92684 L53.6506058,322.973867 L53.6682336,327.340333 L52.3755328,330.031458 L40.3122847,330.17254 L39.8903942,292.27693 L39.902146,292.27693 L41.3934526,291.432794 L41.2477299,288.999141 L44.4077956,291.697321 L43.9800292,292.32866 L43.9976569,292.381565 L44.8108832,292.914147 L45.1857664,292.36393 L49.3506131,295.928584 L48.9240219,296.554044 L48.9522263,296.618707 L49.7654526,297.152464 L50.1403358,296.60695 L54.2993066,300.165725 L53.8727153,300.786483 L53.9079708,300.855848 L54.6859416,301.37197 L55.0667007,300.821753 L59.2550511,304.402867 L58.8214088,305.023624 L58.8637153,305.098868 L59.2726788,305.368098 L69.3698467,290.836725 L69.487365,322.832786 L66.7844453,322.862178 Z M1281.20745,266.501379 L1281.2192,264.634403 L1281.17219,264.628524 L1281.19569,245.455577 L1280.83139,242.247154 L1279.13912,239.362041 L1277.21182,237.840715 L1278.88058,237.65966 L1279.12737,237.009511 L1279.12737,236.048982 L1277.89343,235.856171 L1277.90518,221.24838 L1278.89234,221.114352 L1279.15088,220.299608 L1279.15088,219.562458 L1278.26949,219.393161 L1277.86993,217.045333 L1275.98964,214.588167 L1273.63927,214.07322 L1273.86255,213.990923 L1274.26212,213.698179 L1274.55591,213.318435 L1274.75569,212.874029 L1274.81445,212.393177 L1274.75569,211.907623 L1274.56766,211.456162 L1274.26212,211.064662 L1273.87431,210.760161 L1273.54526,210.626134 L1272.95766,189.790779 L1272.29956,210.602621 L1271.97051,210.724891 L1271.5827,211.017635 L1271.27715,211.398554 L1271.08912,211.84296 L1271.01861,212.323812 L1271.08912,212.808191 L1271.27715,213.259652 L1271.57095,213.651152 L1271.97051,213.955653 L1272.1938,214.049707 L1269.92569,214.476478 L1268.08066,216.876035 L1267.69285,219.252079 L1266.95248,219.363769 L1266.82321,220.189094 L1266.82321,220.914487 L1268.0454,221.137866 L1268.01015,235.757414 L1266.91723,235.885563 L1266.78796,236.54747 L1266.78796,237.500944 L1268.71526,237.781931 L1266.90547,239.210379 L1265.24847,242.060221 L1265.10745,242.832641 L1264.74314,246.028132 L1264.70788,264.540349 L1264.59036,264.996511 L1264.57861,268.087367 L1264.00277,268.04034 L1263.95577,278.961208 L1264.17905,278.967086 L1263.85,278.967086 L1263.89701,266.372054 L1242.19139,266.202756 L1242.12088,279.927614 L1239.48847,300.845267 L1239.17117,303.414122 L1238.19577,303.414122 L1238.20752,300.944024 L1238.27803,300.944024 L1238.54832,251.155261 L1239.19467,251.16114 L1239.22993,245.76478 L1238.79511,244.202305 L1234.56445,244.143521 L1234.5292,249.692719 L1235.08153,251.119991 L1235.30482,251.119991 L1235.12854,281.928617 L1232.86044,273.466091 L1227.26657,252.648372 L1227.36058,239.045784 L1212.92934,238.852973 L1212.82358,252.495534 L1206.71263,271.24171 L1205.11438,271.229953 L1204.84409,272.295117 L1205.02036,250.793153 L1205.73723,250.804909 L1205.77248,245.37328 L1204.42102,243.781413 L1200.13161,243.728507 L1200.0846,249.311799 L1200.91898,250.137125 L1200.73095,273.249767 L1199.96708,273.243888 L1199.80255,292.334538 L1199.70854,292.709579 L1199.67328,297.988371 L1199.56752,298.29875 L1199.57927,297.027842 L1186.66401,297.017261 L1173.66415,296.999626 L1169.0069,296.993748 L1168.48042,295.488881 L1168.71428,273.518997 L1167.3922,273.027564 L1164.38491,273.008753 L1164.29089,281.501847 L1162.58335,281.085657 L1160.51268,280.588345 L1148.9054,280.53544 L1148.8819,282.29778 L1145.06726,291.796078 L1145.06726,291.7902 L1145.40688,265.500877 L1143.10235,264.710822 L1139.27596,264.68143 L1139.13611,275.508243 L1137.09952,275.022688 L1133.73027,274.20912 L1118.789,274.120944 L1118.75374,276.380596 L1115.19647,284.679703 L1114.59947,284.673824 L1114.0965,282.33305 L1113.04353,286.383259 L1112.99653,289.824467 L1107.16997,303.408244 L1106.39788,352.933654 L1104.17561,352.933654 L1103.89356,304.286475 L1102.28004,304.021947 L1101.10955,304.021947 L1100.93328,272.50086 L1099.29507,272.50086 L1099.16698,248.608744 L1098.05526,248.608744 L1097.77439,194.946125 L1097.41243,194.946125 L1097.41243,193.910353 L1096.83894,193.904474 L1096.82719,193.073271 L1096.10093,193.073271 L1096.10093,192.664135 L1094.68601,192.664135 L1094.67426,190.925308 L1094.60374,190.697226 L1091.18749,187.384168 L1087.89933,190.873578 L1087.74773,191.107538 L1087.75948,193.061514 L1057.88752,193.015662 L1057.88752,192.605351 L1054.2139,192.599473 L1054.10813,193.049757 L1054.01529,193.436555 L1053.75793,193.436555 L1053.62866,194.004407 L1053.51231,194.478205 L1053.46531,194.478205 L1053.32428,195.116598 L1053.00816,196.443938 L1053.02109,201.682756 L1052.09622,201.676878 L1051.92112,202.449298 L1051.6755,202.449298 L1051.46397,203.403948 L1051.41696,203.403948 L1051.14902,204.579625 L1051.20661,248.100851 L1036.06673,248.089095 L1035.56375,241.071476 L1034.04189,222.254759 L1032.15925,170.522602 L1030.26368,222.248881 L1028.74299,241.065598 L1028.23884,248.083216 L1013.84755,248.077338 L1013.90631,204.532598 L1013.6842,203.356921 L1013.59019,203.356921 L1013.40334,202.403446 L1013.15772,202.403446 L1012.9932,201.623972 L1012.32687,201.623972 L1012.33862,196.386329 L1012.0695,195.046057 L1011.95199,194.413543 L1011.84739,194.413543 L1011.75338,193.927988 L1011.64879,193.377771 L1011.36674,193.377771 L1011.28566,192.973338 L1011.20339,192.528932 L1009.19148,192.528932 L1009.19148,192.939243 L977.810584,192.892216 L977.834088,190.380969 L977.810584,190.158766 L974.557679,186.536504 L971.445796,189.743752 L971.246015,189.94832 L971.222511,192.471324 L969.187095,192.471324 L969.187095,192.880459 L968.134131,192.880459 L968.12238,193.72342 L967.584146,193.72342 L967.584146,194.753314 L967.210438,194.753314 L966.917818,248.521744 L965.875431,248.521744 L965.747336,272.458536 L964.331241,272.458536 L964.156139,304.051339 L962.869314,304.051339 L961.359204,304.309988 L961.066584,352.933654 L940.428029,352.933654 L940.451533,348.397891 L940.147161,348.152174 L938.964927,347.244551 L938.964927,306.463829 L939.573672,306.463829 L939.573672,306.450897 L939.585423,304.104245 L939.748774,303.929069 L939.923876,303.770352 L940.123657,303.612811 L940.334015,303.478784 L940.556124,303.355338 L940.778234,303.255406 L941.023847,303.168405 L941.282387,303.097865 L941.538577,303.039081 L941.795942,303.003811 L942.019226,302.993229 L942.323599,302.993229 L942.323599,302.987351 L942.334175,302.272539 L942.791321,302.272539 L942.791321,301.968039 L938.860336,301.956282 L939.023686,278.797789 L939.573672,278.593221 L939.678263,278.552072 L939.690015,276.954326 L940.228248,276.725069 L940.334015,276.685096 L940.345766,274.958026 L941.445737,274.472471 L941.656095,274.378417 L941.667847,273.460213 L939.070693,273.448456 L939.140029,263.305887 L945.751606,259.027597 L945.763358,257.359311 L947.423891,256.24712 L947.423891,255.70866 L947.728263,255.504092 L947.751766,253.356129 L949.156109,252.354452 L949.460482,252.138128 L949.472234,250.933058 L949.472234,250.704977 L940.59138,250.628558 L940.660715,240.965665 L942.580964,239.051662 L942.580964,239.041081 L943.97238,237.653782 L944.253248,237.378674 L944.265,235.956104 L939.328058,235.903198 L939.351562,231.964679 L939.316307,231.776571 L939.269299,231.630787 L939.222292,231.526151 L939.175285,231.477949 L939.116526,231.477949 L938.812153,231.473246 L938.719314,231.414462 L938.625299,231.361557 L938.333854,231.239286 L938.016555,231.156989 L937.701606,231.133475 L937.385482,231.15111 L937.081109,231.221651 L936.776737,231.332165 L936.50762,231.490881 L936.250255,231.695449 L936.039898,231.92353 L935.209044,231.917652 L934.389942,231.092326 L933.570839,231.08057 L932.739985,231.88826 L932.120664,231.876503 L931.300387,231.057056 L930.470708,231.045299 L929.651606,231.847111 L928.820752,231.835355 L928.598642,231.60257 L928.353029,231.390948 L928.083912,231.232232 L927.791292,231.109962 L927.475168,231.033543 L927.159044,231.004151 L926.84292,231.022961 L926.527971,231.092326 L926.234175,231.204016 L925.954482,231.367435 L925.707693,231.560246 L925.485584,231.795382 L924.655905,231.789503 L923.835628,230.964178 L923.005949,230.952421 L922.175095,231.760111 L921.554599,231.748354 L920.735496,230.928907 L919.904642,230.91715 L919.073788,231.718962 L918.244109,231.707206 L918.020825,231.467368 L917.775212,231.261624 L917.495518,231.098205 L917.201723,230.975934 L916.886774,230.899515 L916.57065,230.876002 L916.254526,230.893637 L915.950153,230.964178 L915.645781,231.074691 L915.364912,231.232232 L915.119299,231.432097 L914.89719,231.666057 L914.066336,231.6543 L913.235482,230.834853 L912.404628,230.823096 L911.574949,231.624908 L910.954453,231.61903 L910.123599,230.793704 L909.292745,230.787826 L908.461891,231.589638 L907.631036,231.58376 L907.502942,231.443854 L907.408927,231.338043 L907.163314,231.133475 L907.057547,231.068813 L906.882445,230.970056 L906.578073,230.84661 L906.273701,230.770191 L905.945825,230.741975 L905.630876,230.764312 L905.314752,230.828975 L905.022131,230.946542 L904.741263,231.104083 L904.483898,231.302773 L904.27354,231.536732 L903.430934,231.526151 L902.60008,230.705529 L901.769226,230.694947 L900.938372,231.496759 L900.306124,231.490881 L899.47527,230.665556 L898.645591,230.653799 L897.802985,231.461489 L896.972131,231.449732 L896.750022,231.209894 L896.504409,231.004151 L896.22354,230.834853 L895.919168,230.711407 L895.603044,230.642042 L895.28692,230.61265 L894.971971,230.630285 L894.655847,230.700826 L894.351474,230.817218 L894.070606,230.975934 L893.824993,231.174624 L893.602883,231.408584 L892.772029,231.396827 L891.929423,230.565623 L891.086818,230.559745 L890.52508,231.109962 L889.238255,230.970056 L888.792861,230.530353 L887.951431,230.524474 L887.65881,230.805461 L887.307431,230.764312 L885.494124,230.694947 L885.225007,230.583258 L884.908883,230.506839 L884.581007,230.478623 L884.266058,230.502136 L883.949934,230.565623 L883.902927,230.589137 L882.557343,230.565623 L881.294022,230.518596 L881.211759,230.437474 L880.380905,230.425717 L880.25281,230.542109 L878.182139,230.518596 L878.06462,230.396325 L877.222015,230.390447 L877.139752,230.472744 L875.911686,230.489204 L874.530847,230.472744 L874.483839,230.453934 L874.167715,230.37869 L873.839839,230.34342 L873.524891,230.366933 L873.208766,230.437474 L872.927898,230.542109 L871.138095,230.565623 L870.763212,230.600893 L870.458839,230.30815 L869.616234,230.296393 L869.172015,230.729042 L867.873438,230.834853 L867.299949,230.267001 L866.457343,230.255244 L865.614737,231.068813 L864.773307,231.057056 L864.550022,230.817218 L864.292657,230.61265 L864.011788,230.443353 L863.707416,230.319906 L863.392467,230.243487 L863.064591,230.214095 L862.736715,230.237609 L862.420591,230.302271 L862.116219,230.419839 L861.83535,230.57738 L861.579161,230.777245 L861.355876,231.015907 L860.51327,231.010029 L859.670664,230.174122 L858.817482,230.162366 L857.974876,230.975934 L857.342628,230.970056 L856.489445,230.132974 L855.645664,230.121217 L854.804234,230.934786 L853.949876,230.928907 L853.727766,230.683191 L853.470401,230.478623 L853.189533,230.30815 L852.885161,230.184703 L852.569036,230.10946 L852.241161,230.085947 L851.91446,230.103582 L851.598336,230.174122 L851.293964,230.290514 L851.152942,230.361055 L851.013095,230.449231 L850.75573,230.64792 L850.685219,230.718461 L850.53362,230.88188 L849.691015,230.876002 L848.824905,230.038919 L847.982299,230.027163 L847.139693,230.840731 L846.496869,230.834853 L845.642511,230.003649 L844.788153,229.991892 L843.945547,230.805461 L843.104117,230.793704 L842.86908,230.553866 L842.612891,230.34342 L842.330847,230.174122 L842.02765,230.050676 L841.699774,229.974257 L841.371898,229.951919 L841.044022,229.968379 L840.727898,230.038919 L840.423526,230.155312 L840.142657,230.314028 L839.886467,230.518596 L839.664358,230.752556 L838.81,230.741975 L837.955642,229.903717 L837.101285,229.893135 L836.258679,230.711407 L835.615854,230.705529 L834.761496,229.869622 L833.907139,229.857865 L833.052781,230.671434 L832.210175,230.659677 L831.976314,230.419839 L831.718949,230.208217 L831.426328,230.044798 L831.121956,229.922527 L830.807007,229.84023 L830.46738,229.816716 L830.139504,229.834352 L829.82338,229.903717 L829.519007,230.021284 L829.238139,230.178825 L828.980774,230.37869 L828.758664,230.618528 L827.904307,230.61265 L827.038197,229.769689 L826.185015,229.757933 L825.342409,230.57738 L824.698409,230.565623 L823.833474,229.734419 L822.967365,229.722662 L822.124759,230.542109 L821.270401,230.530353 L821.03654,230.284636 L820.779175,230.07419 L820.486555,229.909595 L820.182182,229.787325 L819.854307,229.705027 L819.526431,229.681514 L819.19973,229.700324 L818.883606,229.769689 L818.567482,229.887257 L818.485219,229.938987 L818.380628,229.991892 L818.005745,229.991892 L817.948161,230.050676 L817.901153,230.150609 L817.854146,230.296393 L817.807139,230.489204 L817.865898,234.504142 L812.69392,234.446534 L812.717423,235.89732 L814.483723,237.62439 L814.483723,237.646728 L816.508562,239.63715 L816.636657,249.522245 L807.335088,249.439948 L807.335088,249.675083 L807.346839,250.903666 L807.674715,251.137626 L809.148394,252.16752 L809.18365,254.380144 L809.242409,254.421293 L809.511526,254.596469 L809.511526,255.152565 L811.266073,256.305904 L811.289577,258.02592 L818.239606,262.462927 L818.263109,264.107699 L818.380628,272.851212 L815.654204,272.833577 L815.677708,273.77647 L815.899818,273.875227 L817.046796,274.373714 L817.070299,276.146636 L817.176066,276.193663 L817.74838,276.421744 L817.771883,278.060639 L817.87765,278.100612 L818.451139,278.318112 L818.767263,301.956282 L814.66,301.973917 L814.671752,302.284296 L815.151226,302.284296 L815.162978,303.015567 L815.162978,303.021446 L815.479102,303.021446 L815.712964,303.033203 L815.993832,303.068473 L816.262949,303.121378 L816.520314,303.196622 L816.777679,303.284797 L817.01154,303.396487 L817.245401,303.519933 L817.467511,303.659839 L817.667292,303.811501 L817.854146,303.976096 L818.029248,304.15715 L818.064504,306.556708 L818.064504,306.562586 L818.836599,306.562586 L819.386584,347.877066 L817.398175,349.392514 L817.444007,352.933654 L798.899628,352.933654 L797.764401,350.866813 L797.88192,350.803327 L796.910044,348.918716 L796.734942,349.005716 L796.535161,348.643607 L796.652679,348.537796 L796.161453,347.958188 L795.143745,345.892522 L794.089606,343.416546 L793.949759,343.47533 L793.891,343.351883 L794.02027,343.288397 L793.061321,341.421421 L792.943803,341.479029 L792.896796,341.386151 L793.014314,341.31561 L792.067117,339.706108 L772.772971,300.938145 C773.755423,299.627265 774.351241,298.006006 774.351241,296.244841 C774.351241,292.650795 771.906861,289.618723 768.571693,288.671127 L757.304044,247.719932 L756.075978,243.10775 L756.075978,242.932574 L756.028971,242.932574 L753.267292,232.607775 C754.742146,231.3498 755.701095,229.366432 755.701095,227.118537 C755.701095,225.14575 754.952504,223.36695 753.771445,222.108975 L753.793774,222.085462 L752.917088,221.277771 L752.87008,221.324799 C752.284839,220.90273 751.630263,220.587649 750.927504,220.411297 L749.184708,205.346167 L749.160029,205.078112 L745.252547,171.307955 L745.229044,170.740103 L745.193788,170.745981 L745.170285,170.575508 L745.183212,170.575508 L745.170285,170.476751 L745.206715,170.464994 L745.077445,169.768993 L741.239299,136.531417 L741.227547,136.261011 L741.239299,136.004714 L741.227547,136.004714 L741.216971,135.753119 L741.216971,135.746065 L741.204044,135.641429 L740.50246,119.709825 L740.525964,119.043216 L740.478956,119.043216 L740.467204,118.750472 L740.50246,118.744594 L740.444876,118.223769 L737.682022,55.5883791 L737.705526,53.2358486 L737.705526,53.2299702 L737.718453,52.4340366 L737.718453,51.7321572 L737.729029,51.7204004 L737.718453,51.7027652 L737.718453,51.6322246 L737.647942,51.6322246 L737.647942,51.6263462 L737.718453,51.6263462 L737.729029,50.8833181 L737.553927,50.8833181 L737.553927,50.8774397 L737.612686,50.8245342 L737.729029,50.8245342 L737.729029,50.7187233 L737.823044,50.6317231 L737.777212,50.584696 L738.337774,50.6258447 L738.361277,50.4095201 L737.729029,50.3613173 L737.729029,50.2978307 L738.349526,50.3037091 L738.361277,49.4901404 L738.373029,49.4901404 L738.373029,49.3855051 L738.559883,49.5841946 L739.075788,49.1033425 L739.168628,49.1103966 L739.355482,48.8399908 L739.262642,48.7294771 L739.367234,48.6354229 L739.192131,48.4543686 L739.192131,48.3661928 L739.414241,48.5825174 L739.425993,48.5707606 L739.192131,48.3368008 L739.192131,47.9453003 L739.051109,47.9453003 L739.040533,47.9159083 L739.473,47.5173537 L739.461248,47.4997185 L739.98773,47.5408672 L739.999482,47.3245426 L739.274394,47.2657587 L739.274394,47.2540019 L739.297898,47.2481236 L739.286146,47.184637 L739.999482,47.1893397 L740.011234,47.0494341 L739.999482,47.0494341 L739.999482,46.9495015 L740.771577,47.0200421 L740.79508,46.8154743 L741.508416,46.8154743 L741.508416,39.5580177 L739.871387,39.5580177 L740.034737,39.4063553 L740.081745,39.3828417 L740.069993,39.3652066 L740.525964,38.9208005 C743.018526,37.7615826 744.539212,36.20381 744.539212,34.4896724 C744.539212,32.3769801 742.221752,30.4982476 738.642146,29.3155161 L738.642146,21.9933972 L738.653898,21.8946403 L738.747912,21.8946403 L738.747912,21.8711268 L738.653898,21.8770052 L738.653898,21.8711268 L738.689153,21.8711268 L738.689153,21.6548021 L738.66565,21.6548021 L738.677401,21.5090181 L738.689153,21.5090181 L738.677401,21.385572 C738.689153,21.279761 738.689153,21.1751257 738.689153,21.0634364 C738.689153,17.7397964 737.062701,14.8123596 734.617146,13.1276139 L734.617146,12.8172351 L734.137672,12.8172351 L734.617146,12.8113567 L734.114168,12.8113567 L734.055409,12.770208 L734.055409,12.7290593 L734.067161,12.7290593 L734.020153,12.6361808 L734.043657,12.6185456 L733.786292,12.624424 C733.681701,12.5656401 733.575934,12.5127346 733.459591,12.4598291 L733.470168,12.29641 L733.470168,11.6239225 L733.517175,11.4652061 L733.599438,11.4652061 L733.599438,11.3300032 L733.61119,11.3194221 L733.599438,11.3194221 L733.599438,11.2841517 L733.434912,11.2841517 L733.434912,11.1548272 L733.446664,11.1313137 L734.008401,11.1371921 L734.008401,11.1313137 L734.090664,11.1371921 L734.090664,9.97327143 L734.078912,9.97327143 L734.078912,9.95563627 L733.715781,9.95563627 L733.715781,9.5688384 L733.705204,9.5688384 L733.705204,9.55120324 L733.693453,9.55120324 L733.493672,9.55708163 L733.493672,9.55120324 L733.424336,9.55120324 L733.505423,9.47595989 L733.377328,9.34663537 L733.377328,9.30548666 L733.505423,9.18204053 L733.365577,9.03625654 L733.517175,8.89635092 L733.377328,8.76114802 L733.411409,8.73175609 L733.552431,8.60360725 L733.540679,8.59185048 L733.517175,8.60830996 L733.505423,8.58597209 L733.517175,8.56833693 L733.38908,8.42843132 L733.424336,7.57371384 L733.377328,7.57371384 L733.377328,7.16340243 L733.400832,7.15752404 L733.377328,7.15752404 L733.400832,6.85890198 L733.377328,6.61906379 L733.377328,6.57203669 C733.306818,6.12763064 733.108212,5.71144083 732.792088,5.35521058 L732.792088,5.31994026 L732.803839,5.31994026 L732.803839,5.3023051 L732.792088,5.3023051 L732.803839,4.83438549 L732.815591,4.83438549 L732.815591,4.81675033 L732.803839,4.81675033 L732.803839,4.68742581 L732.792088,4.68742581 L732.803839,4.64039872 L732.803839,4.60042569 L732.827343,4.60042569 L732.827343,4.5945473 L732.803839,4.5945473 L732.803839,4.35470911 L732.815591,4.35470911 L732.815591,4.33707395 L732.803839,4.33707395 L732.803839,4.3135604 L732.815591,3.4705997 L732.803839,3.4705997 C732.803839,2.23613842 732.206847,1.10631244 731.328985,0.491433155 L731.328985,0.485554768 L731.317234,0.473797994 L731.306657,0.473797994 C731.153883,0.367987028 730.989358,0.2809869 730.826007,0.204567868 L730.826007,0.18105432 L730.790752,0.169297546 L730.780175,0.192811094 L730.534562,0.104635289 L730.534562,0.0881758054 L730.498131,0.0764190313 L730.498131,0.0881758054 L730.299526,0.0470270962 L730.299526,0.0352703222 L730.240766,0.0293919351 L730.240766,0.0352703222 L730.124423,0.0176351611 L730.124423,0.0117567741 L730.077416,0.00587838703 L730.077416,0.0117567741 L729.890562,0 L729.843555,0 L729.633197,0.0117567741 L729.633197,0.00587838703 L729.58619,0.0117567741 L729.434591,0.0352703222 L729.399336,0.0411487092 L729.399336,0.0470270962 L729.106715,0.12227045 L729.106715,0.117567741 L729.07146,0.128148837 C727.830467,0.556095413 726.953781,1.96573262 726.953781,3.50587002 L726.953781,4.41819569 L726.965533,4.41819569 L726.965533,4.48285795 L726.918526,4.48285795 L726.918526,4.53576343 L726.965533,4.53576343 L726.965533,4.57691214 L726.953781,4.57691214 L726.942029,4.85789904 L726.942029,5.3023051 L726.930277,5.29642671 L726.942029,5.31994026 C726.602401,5.68322458 726.380292,6.10999547 726.321533,6.57203669 L726.309781,6.57203669 L726.309781,6.65433411 L726.286277,6.85890198 L726.309781,7.09286179 L726.298029,7.09286179 L726.286277,7.21042953 L726.309781,7.21630791 L726.309781,7.37384869 L726.286277,7.37384869 L726.274526,7.48553804 L726.309781,7.48553804 L726.309781,7.52668675 L726.274526,7.52668675 L726.274526,7.66071397 L726.309781,7.66071397 L726.309781,7.67247075 L726.274526,7.67247075 L726.262774,8.65063435 L726.321533,8.65063435 L726.321533,8.65651273 L726.286277,9.22436492 L726.403796,9.23024331 L726.415547,9.26433795 L726.286277,9.25845957 L726.286277,9.34075698 L726.052416,9.3348786 L726.052416,9.35839214 L726.040664,9.35839214 L726.040664,9.69816292 L725.56119,9.69228453 L725.549438,10.8562052 L725.549438,10.8620835 L725.631701,10.8620835 L725.771547,10.8679619 L725.712788,10.8738403 L725.677533,10.8738403 L725.631701,10.8797187 L726.087672,10.8797187 L726.087672,11.0795839 L725.936073,11.0795839 L725.936073,11.2782733 L726.087672,11.2782733 L726.087672,11.2841517 L725.936073,11.2841517 L725.936073,11.4652061 L726.087672,11.4652061 L726.087672,12.3540182 L725.748044,12.372829 L725.736292,12.4539508 L725.677533,12.4480724 L725.666956,12.4480724 L725.140474,12.412802 L725.140474,12.442194 L725.127547,12.4950995 L725.116971,12.5362482 L725.116971,12.6526402 L725.105219,12.6526402 L725.105219,12.770208 L725.093467,12.770208 L725.093467,12.9042352 L725.081715,12.9042352 L725.081715,12.923046 L725.069964,12.923046 L725.069964,12.9806542 L725.058212,12.9806542 L725.058212,13.0511949 C722.553898,14.7253595 720.880438,17.6868909 720.880438,21.0634364 L720.880438,23.2643045 L720.811102,24.0661165 L720.880438,24.0719949 L720.880438,24.2060221 L720.811102,24.2060221 L720.811102,24.4223467 L720.880438,24.4223467 L720.880438,28.6594881 L720.79935,29.3507864 C720.355131,29.4977461 719.921489,29.6611653 719.524277,29.8316385 L719.18465,29.9010034 L719.196401,29.9715441 C716.598073,31.1354647 714.995124,32.7285076 714.995124,34.4896724 C714.995124,36.2861074 716.668584,37.9073666 719.371504,39.0842197 L719.406759,39.1371251 L719.289241,39.3593282 L719.558358,39.5109906 L719.570109,39.5168689 L719.547781,39.5580177 L718.236277,39.5580177 L718.202197,42.7652656 L718.236277,42.7652656 L718.236277,42.7887792 L718.202197,42.7887792 L718.202197,43.4624423 L718.236277,43.4624423 L718.236277,43.467145 L718.202197,43.467145 L718.202197,44.5910926 L718.236277,44.5910926 L718.236277,44.596971 L718.202197,44.596971 L718.202197,45.4869588 L718.18927,45.9254865 L718.236277,45.9254865 L718.236277,45.9313649 L718.18927,45.9313649 L718.18927,46.1535679 L718.236277,46.1535679 L718.236277,46.8154743 L719.570109,46.8154743 L719.886234,47.1317315 L719.815723,47.3421778 L719.805146,47.3421778 L719.805146,47.3774481 L719.664124,47.8336109 L719.570109,47.9276651 L719.617117,47.9805706 L719.593613,48.0499355 L719.652372,48.0675707 L719.570109,48.1498681 L720.378635,48.9693153 L720.611321,48.7412339 L720.600745,49.1680048 L720.600745,49.9639384 L721.278825,49.9698168 L721.18481,50.0638709 L721.40692,50.2919524 L721.396343,50.5611825 L721.40692,50.5611825 L721.40692,50.7657504 L721.396343,50.7657504 L721.396343,50.9303452 L721.161307,51.1584266 L721.278825,51.2630619 L721.161307,51.3747513 L721.396343,51.6087111 L721.383416,52.3693743 L721.383416,53.1417944 L721.372839,53.9553632 L721.361088,54.7454184 L721.372839,54.7454184 L721.372839,54.892378 L721.361088,55.3132706 L721.361088,55.5013789 L717.605204,117.305564 L717.487686,118.282552 L717.546445,118.288431 L717.534693,118.510634 L717.464182,118.510634 L717.464182,119.709825 L716.540489,134.857252 L716.48173,135.301658 L716.516985,135.301658 L716.505234,135.523862 L716.469978,135.523862 L716.469978,136.0682 L712.152358,168.837856 L711.930248,170.007655 L711.953752,170.013534 L711.942,170.107588 L711.977255,170.113466 L711.965504,170.22398 L711.906745,170.219277 L711.847985,171.131603 L707.519788,203.983557 L707.496285,204.152854 L707.296504,204.141098 L707.086146,207.236656 L705.366854,220.336054 C704.687599,220.458324 704.043599,220.698162 703.458358,221.043812 L703.389022,220.955636 L702.499409,221.757448 L702.499409,221.763326 C701.107993,223.021301 700.21838,224.958817 700.21838,227.118537 C700.21838,229.382891 701.18908,231.38507 702.686263,232.643045 L700.171372,241.785112 L700.112613,241.961464 L700.124365,241.966167 L699.914007,242.738587 L699.867,242.738587 L699.867,242.903182 L699.177168,245.402672 L687.803752,284.57977 L688.096372,284.662067 L688.096372,284.673824 L687.803752,284.585648 L687.195007,286.692462 L686.646197,288.185573 L686.540431,288.285505 L686.528679,288.279627 L686.341825,288.472438 C686.200803,288.495951 686.059781,288.518289 685.919934,288.547681 L685.73308,288.454803 L685.662569,288.612343 C682.199307,289.484696 679.637409,292.56262 679.637409,296.244841 C679.637409,298.157668 680.327241,299.920009 681.485971,301.283795 L681.637569,301.897498 L681.228606,303.003811 L681.216854,303.027324 L680.268482,304.830813 L680.25673,304.847273 L678.349409,308.500102 L678.338832,308.517738 L677.39046,310.320051 L677.378708,310.349443 L673.88019,317.015534 L673.728591,317.325913 L673.716839,317.331791 L672.722635,319.234037 L672.722635,319.245794 L672.62862,319.409213 L672.581613,319.391578 L672.511102,319.649051 L671.037423,322.464799 L670.966912,322.604704 L670.908153,322.581191 L668.872737,326.403318 L668.943248,326.438588 L668.82573,326.672548 L668.766971,326.649035 L668.591869,327.116954 L664.309504,335.293791 L659.74627,343.182586 L659.956628,343.300154 L659.90962,343.364816 L659.711015,343.253127 L658.693307,345.196521 L658.787321,345.243548 L658.752066,345.32467 L658.646299,345.283521 L658.190328,346.267563 C658.190328,346.267563 657.219628,347.677201 655.874044,349.661744 L656.446358,222.388787 L655.04319,222.997787 L651.977139,225.169264 L647.311664,228.88558 L644,231.677814 L640.74827,237.970039 L640.758847,234.423021 L634.026226,240.304935 L632.586628,243.804926 L622.705693,254.063887 L622.711569,314.217422 L629.930715,321.708838 L629.930715,322.148541 L624.524876,321.726473 L624.086533,321.610081 L623.243927,321.41727 L621.220263,321.006959 L619.161343,320.743607 L618.476212,320.655431 L617.574847,320.591945 L616.510131,320.550796 L615.708657,320.521404 L615.112839,320.509647 L614.492343,320.509647 L613.901226,320.527282 L612.995161,320.562553 L611.95865,320.615458 L611.093715,320.690701 L609.290985,320.93054 L608.343788,321.065743 L606.266066,321.492513 L605.529226,321.698257 L605.289489,321.761744 L599.46881,322.259055 L606.968825,314.253868 L606.828978,253.988644 L597.064387,243.599183 L595.976168,240.069799 L589.114277,234.065615 L589.136606,239.110446 L585.784985,231.255746 L582.374606,228.394147 L577.518752,224.579074 L574.277599,222.337057 L572.727533,221.698664 L573.668854,352.933654 L567.093708,352.933654 L567.081956,352.470437 L567.181847,188.519872 L562.740832,188.461088 L562.390628,177.136963 L562.062752,176.141165 L551.578949,155.212931 L551.280453,144.730591 L551.181737,144.426091 L547.694971,138.222041 L547.612708,138.408974 L547.600956,138.392514 L544.442066,145.151484 L544.412686,145.461863 L544.681803,155.774905 L535.35673,178.090438 L535.339102,178.487817 L535.309723,178.570114 L535.321474,179.07448 L535.321474,179.090939 L535.648175,193.237865 L531.500956,197.609034 L531.94635,300.792361 L516.606693,293.745351 L494.662511,281.647631 L486.89338,281.050386 L452.400599,280.992778 L452.400599,268.215516 L451.440474,268.116759 L451.375839,266.436716 L451.130226,264.060672 L450.744766,261.708142 L450.218285,259.383828 L449.551956,257.101838 L448.744606,254.859821 L447.802109,252.677764 L446.737394,250.558017 L445.537533,248.509987 L444.215453,246.537201 L442.777029,244.653765 L442.613679,244.459779 L441.232839,242.856155 L441.26692,231.824773 L441.262219,230.928907 L441.197584,230.044798 L441.085942,229.160688 L440.922591,228.289511 L440.706358,227.428916 L440.437241,226.580077 L440.115241,225.748873 L439.746234,224.935304 L439.331394,224.151127 L438.869547,223.390464 L438.366569,222.659192 L438.343066,222.6298 L438.038693,222.243003 L438.17854,222.243003 L438.184416,221.026176 L438.190292,221.026176 L438.190292,219.913986 L438.184416,219.808175 L437.728445,219.802296 L437.728445,220.259635 L437.722569,220.259635 L437.722569,220.680527 L437.728445,220.798095 L437.716693,222.073705 L437.277175,222.623922 L436.780073,223.33168 L436.745993,223.378707 L436.277095,224.13937 L435.850504,224.923547 L435.481496,225.725359 L435.14892,226.556563 L434.873927,227.399524 L434.650642,228.26012 L434.47554,229.131297 L434.358022,230.015406 L434.287511,230.899515 L434.276934,231.789503 L434.218175,242.815006 L434.071277,242.973722 L434.141788,230.781948 L434.083029,230.711407 L433.878547,228.201336 L433.825664,227.5747 L433.825664,227.568821 L433.778657,227.018604 L433.25335,223.571518 L432.474204,220.183216 L431.468248,216.8584 L430.222555,213.622936 L428.759453,210.490931 L427.074241,207.471792 L425.179847,204.585504 L424.757956,204.029408 L424.746204,204.017651 L424.23735,203.351042 L423.091547,201.846175 L423.072745,201.823837 L422.704912,201.342985 L420.475591,198.844671 L418.08292,196.515654 L418.065292,196.496843 L417.743292,196.18764 L415.275409,194.120799 L414.338788,193.658758 L413.326956,193.366014 L413.478555,180.303063 L413.478555,179.080358 L413.403343,177.856478 L413.256445,176.64553 L413.034336,175.445163 L413.02846,175.42165 L413.016708,175.368744 L412.724088,174.18131 L412.356255,173.016214 L411.916737,171.874631 L411.413759,170.757738 L410.84027,169.673763 L410.203321,168.626235 L410.126934,168.509842 L409.466482,167.555192 L408.927073,166.882705 L408.94,165.671757 L409.00346,165.671757 L409.009336,165.103905 L408.97408,164.93931 L408.950577,164.834675 L408.962328,164.038741 L408.927073,163.880025 L408.91062,163.798903 L408.87419,163.640187 L408.237241,163.634308 L408.231365,164.155133 L408.167905,164.155133 L408.154978,164.734742 L408.196109,164.893459 L408.219613,165.003972 L408.196109,166.835678 L408.231365,166.994394 L408.243117,167.070813 L408.272496,167.198962 L407.974,167.544611 L407.254788,168.486329 L406.599036,169.470371 L406.00792,170.499089 L405.475562,171.565428 L405.019591,172.665862 L404.62708,173.800391 L404.306255,174.959609 L404.053591,176.141165 L403.990131,176.49857 L403.807978,177.710694 L403.703387,178.933398 L403.674007,180.157279 L403.487153,193.108541 L402.475321,193.342501 L401.509321,193.752812 L398.976803,195.695031 L396.584131,197.848872 L396.279759,198.147494 L396.022394,198.369697 L395.793234,198.610711 L395.782657,198.621292 L395.635759,198.77413 L393.688482,200.798647 L393.600343,200.904458 L393.406438,201.103147 L391.219423,203.760178 L389.223964,206.575926 L387.434161,209.537457 L385.860591,212.627137 L384.507956,215.840263 L383.391533,219.153322 L382.507796,222.553381 L381.876723,226.018103 L381.542971,229.06781 L381.173964,229.295891 L381.132832,231.209894 L381.016489,231.209894 L381.010613,231.624908 L380.940102,231.624908 L380.92835,231.994071 L380.998861,232.08695 L380.975358,233.263803 L381.038818,233.340222 L381.085825,233.340222 L381.085825,233.350803 L380.822584,233.662357 L380.360737,234.287818 L379.940022,234.932089 L379.553387,235.610455 L379.213759,236.307631 L378.910562,237.021268 L378.653197,237.752539 L378.44754,238.507324 L378.278314,239.267987 L378.161971,240.041583 L378.085584,240.819881 L378.06208,241.604058 L377.979818,245.279226 L377.336993,244.412751 L375.821007,242.622195 L376.06662,231.695449 L376.078372,230.799583 L376.037241,229.909595 L376.025489,229.752054 L375.926774,228.862066 L375.779876,227.990889 L375.575394,227.124415 L375.318029,226.275576 L375.019533,225.438494 L374.663453,224.630803 L374.25919,223.836045 L373.809095,223.074207 L373.311993,222.337057 L372.884226,221.78684 L372.913606,220.704041 L373.000569,220.704041 L373.013496,220.283148 L372.925358,220.159702 L372.937109,219.585972 L372.860723,219.475458 L372.398876,219.475458 L372.387124,219.931621 L372.294285,219.931621 L372.281358,220.352513 L372.375372,220.475959 L372.340117,221.810353 L372.42238,221.914989 L372.526971,221.920867 L372.194394,222.307665 L371.662036,223.01072 L371.17081,223.74787 L370.725416,224.514411 L370.33408,225.304467 L369.988577,226.118035 L369.69008,226.955118 L369.444467,227.808659 L369.251737,228.681012 L369.110715,229.559243 L369.023752,230.449231 L368.994372,231.338043 L368.725255,242.44114 L367.098803,244.178792 L365.578117,246.010497 L364.173774,247.942135 L362.89165,249.95607 L361.734095,252.051128 L360.710511,254.216725 L359.820898,256.446985 L359.066431,258.734854 L358.457686,261.063871 L357.995839,263.434036 L357.679715,265.834769 L357.545745,267.776989 L355.737139,267.975678 L355.462146,277.6033 L354.901584,278.405112 L354.385679,279.265708 L353.935584,280.155696 L353.660591,280.822305 L327.844182,280.775278 L327.948774,277.744382 L328.14738,277.744382 L328.182635,276.754461 L327.989905,276.690975 L326.310569,271.862467 L321.578109,271.856589 L321.589861,271.656724 L321.484095,271.259345 L321.536978,271.259345 L321.554606,271.171169 L321.572234,271.119439 L321.642745,269.286558 L321.613365,269.217193 L321.484095,269.217193 L321.554606,269.052598 L321.560482,269.04672 L321.536978,268.958544 L321.51935,268.953842 L320.929409,268.736341 L320.910606,268.731639 L320.350044,268.72576 L320.320664,268.795125 L320.32654,268.806882 L320.35592,268.92445 L320.250153,268.918571 L320.220774,268.971477 L320.150263,270.814939 L320.162015,270.879601 L320.173766,270.978358 L320.244277,270.978358 L320.092679,271.335764 L320.069175,271.937711 L318.003204,275.421243 L317.739964,275.421243 L317.700007,276.445258 L317.922117,276.508745 L318.594321,276.514623 L318.285248,284.539797 L318.202985,286.587827 L317.647124,287.564815 L316.798642,287.401396 L316.675248,287.395517 L316.757511,286.727733 L316.786891,285.902407 L316.751635,285.077082 L316.635292,284.269391 L316.453139,283.467579 L316.20165,282.689281 L315.87965,281.928617 L315.49419,281.203224 L315.048796,280.513102 L314.541117,279.857074 L313.978204,279.248073 L313.358883,278.686099 L312.697255,279.218681 L312.089686,279.810047 L311.526774,280.442561 L311.019095,281.120927 L310.573701,281.835739 L310.194117,282.584645 L309.877993,283.357065 L309.625328,284.152999 L309.450226,284.966568 L309.339759,285.786015 L309.304504,286.611341 L309.333883,287.301463 L308.198657,287.388463 L308.163401,288.2326 L308.649927,288.3196 L307.947168,305.31049 L306.677971,305.31049 L306.619212,306.74364 L306.882453,306.755397 L307.589912,306.784789 L307.303168,313.737745 L307.226781,312.859514 L306.402978,312.859514 L305.998715,313.696597 L306.06335,314.60422 L306.19262,315.277883 L306.227876,315.581207 L306.397102,315.8281 L307.204453,316.050303 L307.169197,316.997899 L306.513445,316.640493 L306.15619,316.388898 L306.122109,316.084397 L305.904701,315.856316 L305.530993,315.815167 L305.273628,315.8281 L304.57792,316.125546 L304.080818,316.529979 L303.413314,318.021914 L303.325175,318.373441 L303.454445,318.666185 L303.71181,318.654428 L304.220664,318.44986 L304.857613,318.186509 L305.344139,318.208846 L305.589752,318.742604 L305.9,319.010658 L305.613255,319.279889 L305.560372,319.607903 L305.589752,320.216903 L305.800109,320.761242 L306.379474,321.00108 L306.741431,321.329094 L306.970591,321.797014 L306.817818,325.338154 L300.353139,325.344033 L298.814825,325.344033 L298.756066,324.805572 L298.75019,323.535841 L298.674978,322.704637 L298.575088,322.282569 L298.20608,322.048609 L299.224964,321.6865 L299.932423,321.411392 L299.950051,321.059864 L300.00881,319.696078 L298.844204,318.858996 L297.914635,318.373441 L297.054401,317.999576 L295.989686,317.799711 L295.064818,315.470694 L294.883839,314.791152 L294.685234,314.505463 L294.263343,314.346746 L294.194007,313.667205 L293.713358,313.405029 L293.748613,312.872447 L292.911883,312.872447 L292.601635,312.878325 L292.039898,313.381515 L292.063401,315.14268 L291.654438,315.500086 L290.986934,315.563572 L290.103197,315.44718 L289.899891,312.872447 L289.250015,312.872447 L288.928015,312.878325 L288.472044,313.820043 L288.535504,314.844058 L288.676526,315.605897 L288.717657,315.95037 L288.910387,316.237235 L290.355861,316.634614 L291.408825,316.793331 L291.724949,316.787452 L292.028146,316.459438 L292.263182,316.494709 L292.356022,317.37294 L292.285511,317.76444 L292.076328,317.852616 L291.625058,318.255874 L291.379445,318.326414 L291.12208,318.251171 L290.436949,317.893765 L289.074912,317.150737 L288.67065,316.86975 L288.629518,316.524101 L288.383905,316.266627 L287.96319,316.2196 L287.64119,316.231357 L286.845591,316.565249 L286.277978,317.027291 L285.523511,318.713212 L285.417745,319.104713 L285.558766,319.438605 L285.891343,319.426848 L286.464832,319.192888 L287.179343,318.900145 L287.699949,318.923658 L287.980818,319.520902 L288.325146,319.825403 L287.998445,320.128728 L287.939686,320.509647 L287.969066,321.195067 L288.202927,321.808771 L288.857504,322.083879 L289.267642,322.453042 L290.297102,324.601005 L290.37819,325.425154 L290.063241,325.454546 L288.794044,352.933654 L286.207467,352.933654 L286.336737,322.956232 L280.925022,322.920962 L278.964818,322.92684 L278.982445,319.56793 L274.413336,319.56793 L274.472095,305.31049 L271.892569,305.66672 L271.83381,319.560875 L269.844226,319.560875 L267.264701,319.619659 L267.264701,320.393255 L261.701387,320.393255 L260.349927,320.024092 L260.349927,319.941795 L260.045555,319.941795 L258.746978,319.590267 L256.336679,319.590267 L256.37781,308.464832 L254.08973,308.739941 L254.05565,319.584389 L234.533518,319.578511 L211.39535,311.251188 L185.267518,311.227674 L185.274569,304.221812 L185.274569,299.556724 L184.384956,299.094683 L183.192146,298.972413 L180.184854,296.671612 L179.389255,296.25072 L172.198314,293.955797 L166.635,293.159864 L166.635,286.955814 L166.267168,286.751246 L160.714431,285.375704 L160.305467,285.276947 L159.211372,285.224041 L157.942175,285.235798 L157.093693,285.312217 L151.53038,286.698341 L151.045029,286.909963 L151.045029,293.131647 L145.674445,293.885257 L138.554015,296.150787 L137.424664,296.565801 L135.301109,298.170601 L135.301109,295.606448 L135.296409,289.039114 L135.137759,288.659371 L135.149511,295.307826 L133.939073,277.094232 L131.762635,277.082475 L131.739131,260.326721 L131.381876,259.045232 L131.411255,277.082475 L129.234818,277.070718 L129.000956,278.75664 L82.4684307,278.569707 L81.9713285,276.872029 L77.2212409,276.848515 L73.377219,284.328175 L72.353635,277.650327 L70.5227007,289.589331 L69.3639708,289.589331 L69.3698467,289.917345 L68.9667591,290.491076 L63.9064234,288.020978 L64.3095109,287.436666 L64.2625036,287.383761 L63.5080365,286.891152 L63.028562,287.594207 L58.0093577,285.141744 L58.3713139,284.609162 L58.3360584,284.56331 L57.5122555,284.023675 L57.0609854,284.685581 L52.0829124,282.256631 L52.4448686,281.718171 L52.4166642,281.677022 L51.597562,281.144441 L51.146292,281.799293 L46.168219,279.371519 L46.5360511,278.833059 L46.5078467,278.797789 L45.6934453,278.259328 L45.2492263,278.921235 L40.475635,276.591042 L40.4521314,276.217177 L40.6342847,275.952649 L40.6166569,275.924433 L40.4286277,275.795108 L40.1360073,271.101804 L40.2417737,271.095926 L40.4345036,271.048899 L41.943438,270.657398 L42.1197153,270.580979 L42.2536861,270.475168 L42.3418248,270.352898 L42.3712044,270.217695 L42.3477007,270.082492 L42.2666131,269.960221 L41.9034818,269.579302 L41.7800876,269.474667 L41.6108613,269.392369 L41.499219,269.368856 L41.2594818,269.105504 L23.5859124,256.832608 L24.6094964,255.632241 L25.2711241,256.066066 L25.2828759,256.060187 L25.8211095,255.24074 L25.2593723,254.877456 L28.9036131,250.610923 L29.5711168,251.044748 L30.1093504,250.219422 L30.1093504,250.213544 L29.5534891,249.850259 L33.2153577,245.560213 L33.8828613,245.992862 L34.4316715,245.161658 L34.4316715,245.151077 L33.8769854,244.787793 L37.5564818,240.474232 L38.2239854,240.913935 L38.7727956,240.076853 L38.7845474,240.059218 L38.2239854,239.690055 L41.9199343,235.35886 L42.5933139,235.797387 L42.6109416,235.769171 L43.1668029,234.932089 L42.6050657,234.562926 L46.3198175,230.214095 L46.9931971,230.653799 L47.0167007,230.618528 L47.5713869,229.769689 L47.0049489,229.401702 L50.7373285,225.035236 L51.4154088,225.473764 L51.4506642,225.426737 L51.9888978,224.613168 L51.4154088,224.245181 L55.1889197,219.819931 L55.8681752,220.259635 L55.9081314,220.212608 L56.189,219.785837 L40.359292,209.531578 L40.1066277,209.923079 L40.0901752,209.987741 L40.7036204,210.38512 L38.1475985,215.641574 L37.5212263,215.238317 L37.0123723,216.016615 L37.0064964,216.074223 L37.7080803,216.531562 L35.1873139,221.722178 L34.6138248,221.35419 L34.0638394,222.201854 L34.0579635,222.248881 L34.7195912,222.676828 L32.2211533,227.808659 L31.6535401,227.440672 L31.1035547,228.282457 L31.1035547,228.324782 L31.7640073,228.751553 L29.2784964,233.861047 L28.7108832,233.491884 L28.1667737,234.334845 L28.1667737,234.358358 L28.8284015,234.785129 L26.3475912,239.876988 L25.785854,239.509001 L25.2417445,240.340205 L25.2534964,240.35784 L25.9092482,240.790489 L23.4401898,245.852956 L22.8784526,245.489672 L22.340219,246.314997 L22.3519708,246.326754 L23.0006715,246.754701 L20.5504161,251.793654 L20.0004307,251.436248 L19.9886788,251.43037 L19.4504453,252.255695 L20.1108978,252.688345 L19.4845255,253.975711 L15.951927,251.524424 L15.5535401,251.524424 L7.2179708,257.277014 L5.50337956,255.814471 L5.9299708,255.152565 L5.12262044,254.619983 L5.08736496,254.619983 L4.7430365,255.158443 L0.577014599,251.600843 L1.00478102,250.933058 L0.197430657,250.406355 L0.15629927,250.400476 L0,250.640315 L0,259.044057 L1.70048905,259.875261 L1.33735766,260.431356 L2.00486131,260.865181 L0,262.247778 L0,410.980375 L1288,410.980375 L1288,266.553108 L1281.20745,266.501379 Z M313.516358,278.646126 L313.592745,278.610856 L313.651504,278.581464 L313.65738,278.57441 L313.779599,278.475653 L313.873613,278.352207 L313.938248,278.212301 L313.955876,278.082977 L313.961752,278.060639 L313.942949,277.907801 L313.897117,277.762017 L313.814854,277.632692 L313.697336,277.526881 L313.604496,277.475151 L313.557489,277.451638 L313.411766,277.410489 L313.264869,277.445759 L313.125022,277.5163 L313.11327,277.5163 L312.995752,277.615057 L312.901737,277.744382 L312.838277,277.884287 L312.814774,278.037125 L312.814774,278.066517 L312.826526,278.188788 L312.872358,278.329869 L312.960496,278.458018 L313.072139,278.563829 L313.206109,278.640248 L313.211985,278.646126 L313.358883,278.686099 L313.510482,278.650829 L313.516358,278.646126 L313.516358,278.646126 Z" id="Fill-580"></path>
            </g>
        </g>
    </g>
</svg>